<svg width="64" height="64" viewBox="0 0 64 64" fill="none" xmlns="http://www.w3.org/2000/svg">
  <title>Building National Centers network mark</title>
  <circle cx="32" cy="32" r="30" fill="#0B3B4A"/>
  <circle cx="32" cy="32" r="29" stroke="#66D1A9" stroke-width="2"/>
  <path d="M32 32L32 14M32 32L48 23M32 32L48 41M32 32L32 50M32 32L16 41M32 32L16 23" stroke="white" stroke-width="2.5" stroke-linecap="round" opacity=".86"/>
  <path d="M32 14L48 23L48 41L32 50L16 41L16 23L32 14Z" stroke="#66D1A9" stroke-width="2" stroke-linejoin="round" opacity=".9"/>
  <circle cx="32" cy="32" r="7" fill="#66D1A9"/>
  <circle cx="32" cy="14" r="4" fill="white"/>
  <circle cx="48" cy="23" r="4" fill="white"/>
  <circle cx="48" cy="41" r="4" fill="white"/>
  <circle cx="32" cy="50" r="4" fill="white"/>
  <circle cx="16" cy="41" r="4" fill="white"/>
  <circle cx="16" cy="23" r="4" fill="white"/>
</svg>
